<svg width="139" height="119" viewBox="0 0 139 119" fill="none" xmlns="http://www.w3.org/2000/svg">
<path d="M107.5 94.5002C93.0002 95.6049 95.5002 116.605 109.5 116.105C123.5 115.605 125 95.1049 108 94.5002C91.0002 93.8955 62.0002 92.5002 53.0002 93.5002C44.0002 94.5002 39.0075 104 42.5776 109.895C49.0002 120.5 65.0151 116.118 64.0002 103.5C62.6011 86.1053 38.3896 100.201 38.0002 89.5002C37.3672 72.1065 36.8356 42.0385 36.8356 27.1198C36.8356 25.3792 39.0754 22.1421 42.2863 22.3955C69.0776 24.5095 100.5 28.3899 129.5 30.0001C131.653 30.1197 134.901 32.5001 135 35.5001C135.347 46.0461 135.728 57.2257 135.939 63.5002C136.031 66.2353 135.037 69.4805 132.559 70.0957C110.526 75.5667 39.2974 80.8417 28.4229 82.3952C24.9229 82.8952 23.0002 80.3952 23.0002 78.7902C23.0002 54.4229 22.9967 22.4956 22.257 12.5783C21.4229 1.39513 12.4229 2.39498 0.922861 4.39516" stroke="#409AFF" stroke-width="5"/>
</svg>
