<svg width="92" height="132" viewBox="0 0 92 132" fill="none" xmlns="http://www.w3.org/2000/svg">
<path d="M45.4766 3C56.4288 8.53384 87 27 88.2801 43.5234C89.5126 59.433 87.9482 94.0938 88.2801 118C88.3772 125 86.5 129.109 80.5 128.957C59.525 128.426 22.6848 128.957 13.5 128.957C9 128.957 2.97669 128.957 2.97669 118C2.97669 104.96 2.83474 76.401 2.50286 49.2851C2.40146 41 4.99073 33.7789 11.4767 27C23.6194 14.309 42.6718 14.3296 56.4193 25.2617C76.6888 41.3801 58.8548 95.7969 30.9766 86.5C3.09846 77.2031 44.1079 16.5588 68.9766 111" stroke="#409AFF" stroke-width="5"/>
</svg>
