<svg width="9" height="13" fill="none" xmlns="http://www.w3.org/2000/svg"><path d="M4.062 8.464c0-.416.07-.779.208-1.088.139-.31.31-.587.512-.832.213-.245.443-.47.688-.672.245-.213.475-.421.688-.624.213-.213.384-.437.512-.672.139-.235.208-.507.208-.816 0-.512-.203-.928-.608-1.248-.405-.32-.965-.48-1.68-.48-.64 0-1.195.107-1.664.32-.47.213-.87.528-1.2.944L.558 2.464A4.466 4.466 0 012.27 1.152c.693-.32 1.504-.48 2.432-.48.768 0 1.435.117 2 .352.565.224 1.003.55 1.312.976.32.416.48.923.48 1.52 0 .448-.07.832-.208 1.152-.139.32-.315.603-.528.848a6.98 6.98 0 01-.688.688 18.92 18.92 0 00-.672.64 3.04 3.04 0 00-.528.704c-.139.256-.208.56-.208.912h-1.6zm.816 3.632a1.012 1.012 0 01-1.04-1.024c0-.299.096-.544.288-.736.203-.192.453-.288.752-.288s.544.096.736.288a.997.997 0 01.288.736c0 .277-.096.517-.288.72a.97.97 0 01-.736.304z" fill="#2E2317"/></svg>