<svg width="53" height="49" xmlns="http://www.w3.org/2000/svg"><path d="M26.578 5.685l1.035 1.393a35.957 35.957 0 00-5.019 2.415C10.485 16.47 4.442 28.657 9.101 36.723c1.544 2.66 4.056 4.535 7.167 5.607l1.321-6.316 5.635 7.89-8.321 4.957 1.048-5.015c-6.374.106-11.775-2.156-14.378-6.663-4.66-8.054 1.384-20.253 13.493-27.23 3.792-2.19 7.742-3.605 11.512-4.268zM37.74 0l-1.05 5.015c6.375-.106 11.777 2.156 14.38 6.663 4.659 8.054-1.384 20.254-13.493 27.23-3.593 2.075-7.327 3.454-10.916 4.157l-.596.111-1.036-1.393a35.953 35.953 0 005.02-2.415c5.242-3.02 9.347-7.017 11.94-11.234h-8.877l1.122-5.05h10.094c1.225-3.909 1.059-7.75-.787-10.945C42 9.479 39.486 7.603 36.375 6.53l-1.32 6.316-5.636-7.89L37.741 0z" fill="#FFF"/></svg>