<svg width="53" height="49" fill="none" xmlns="http://www.w3.org/2000/svg"><path d="M43.538 12.224c4.568 7.808-1.358 19.607-13.232 26.36a35.461 35.461 0 01-4.921 2.338L26.4 42.27c3.697-.642 7.57-2.012 11.29-4.133 11.873-6.752 17.799-18.562 13.23-26.36-3.2-5.47-10.715-7.525-19.013-5.926 5.153.457 9.412 2.6 11.63 6.372z" fill="#00459C"/><path d="M29.688 5.271l8.16-4.798-2.634 12.437-5.526-7.639zM9.765 36.023c-4.569-7.808 1.357-19.607 13.231-26.36a35.475 35.475 0 014.921-2.339l-1.013-1.348c-3.698.641-7.57 2.012-11.29 4.133C3.74 16.86-2.186 28.67 2.384 36.468c3.2 5.47 10.714 7.524 19.013 5.926-5.154-.457-9.413-2.6-11.63-6.372h-.002z" fill="#00459C"/><path d="M23.614 42.975l-8.16 4.798 2.634-12.437 5.526 7.64zM48.831 27.71l1.1-4.89h-15.52l-1.1 4.89h15.52z" fill="#00459C"/></svg>