<?xml version="1.0" encoding="UTF-8"?>
<svg width="53px" height="49px" viewBox="0 0 53 49" version="1.1" xmlns="http://www.w3.org/2000/svg" xmlns:xlink="http://www.w3.org/1999/xlink">
    <title>Combined Shape Copy</title>
    <g id="Page-1" stroke="none" stroke-width="1" fill="none" fill-rule="evenodd">
        <path d="M26.5778919,5.6850574 L27.6132124,7.07797869 C25.9251973,7.72950653 24.2484208,8.53828847 22.5942072,9.49313742 C10.48547,16.4690253 4.44232275,28.657033 9.10123925,36.7225469 C10.6446707,39.3823114 13.1574123,41.2575046 16.2676478,42.3303562 L17.5892716,36.0140884 L23.2244246,43.9046753 L14.9029975,48.861225 L15.9511021,43.8461206 C9.57735825,43.952409 4.1755442,41.6895937 1.57268853,37.1831564 C-3.08624512,29.1288811 2.95686776,16.9295491 15.0655707,9.95366115 C18.8580282,7.76320506 22.8079972,6.34781522 26.5778919,5.6850574 Z M37.7405308,-1.8189894e-12 L36.6917765,5.01514047 C43.0658121,4.90868049 48.4679226,7.17147758 51.0708398,11.6781372 C55.729782,19.7324125 49.6866949,31.9316588 37.5779577,38.9075467 C33.9851031,40.9827481 30.250881,42.362276 26.6623302,43.065242 L26.0656364,43.1761419 L25.0303159,41.7832463 C26.718331,41.1317528 28.3951076,40.3229194 30.0493212,39.3680704 C35.2917106,36.3479477 39.3971745,32.3508364 41.9894541,28.1342659 L33.112559,28.1348259 L34.2350427,23.0835634 L44.3292862,23.0833387 C45.5539958,19.1750496 45.3877143,15.3334424 43.5422891,12.138661 C41.9986919,9.47866945 39.4855765,7.60333775 36.3748787,6.53053744 L35.0542567,12.8472052 L29.4191037,4.95653253 L37.7405308,-1.8189894e-12 Z" id="Combined-Shape-Copy" fill="#FFFFFF" fill-rule="nonzero"></path>
    </g>
</svg>