<?xml version="1.0" encoding="UTF-8"?>
<svg width="764px" height="617px" viewBox="0 0 764 617" version="1.1" xmlns="http://www.w3.org/2000/svg" xmlns:xlink="http://www.w3.org/1999/xlink">
    <title>Path 5</title>
    <g id="Page-1" stroke="none" stroke-width="1" fill="none" fill-rule="evenodd">
        <g id="Баннер-на-главную" transform="translate(-359.000000, -53.000000)" fill="#EB5757" fill-rule="nonzero">
            <path d="M1123,53.8307037 L1123,129 L895.923797,431.112529 C889.413136,440.022647 881.147145,447.505421 871.635015,453.099908 C833.535843,475.507644 784.594815,463.138504 761.657983,425.547881 L760.970925,424.401061 C759.063,421.157076 756.760323,418.162097 754.115563,415.484624 C736.61688,397.769509 708.180934,397.418659 690.251381,414.563872 L689.711299,415.088779 L424.907471,670 L358.97998,670 L657.384916,382.362567 C693.35316,346.833762 751.31297,347.189998 786.841775,383.158241 C791.916277,388.295507 796.364257,394.014284 800.093639,400.194813 L800.621509,401.080874 C810.376202,417.666473 831.729228,423.204016 848.314827,413.449323 C852.236068,411.143076 855.665939,408.092253 858.412392,404.470709 L858.782655,403.97334 L1123,53.8307037 Z" id="Path-5"></path>
        </g>
    </g>
</svg>