<svg width="10" height="12" fill="none" xmlns="http://www.w3.org/2000/svg"><path fill-rule="evenodd" clip-rule="evenodd" d="M7.019 2.564c0 1.618-1.066 2.929-2.38 2.929-1.315 0-2.381-1.312-2.381-2.93S3.324 0 4.638 0c1.315 0 2.38.945 2.38 2.564zM4.705 6.75c2.373 0 4.323.756 4.555 2.882.005.045.01.358.013.609l.003.162c-1.272.962-2.849 1.505-4.638 1.505-1.81 0-3.36-.524-4.638-1.505l.004-.253c.004-.23.008-.479.012-.518C.248 7.506 2.198 6.75 4.571 6.75h.038l.029.002.029-.001.038-.001z" fill="#FFDA85"/></svg>