<svg width="139" height="119" fill="none" xmlns="http://www.w3.org/2000/svg"><path d="M107.5 94.5c-14.5 1.105-12 22.105 2 21.605s15.5-21-1.5-21.605c-17-.605-46-2-55-1S39.008 104 42.578 109.895C49 120.5 65.015 116.118 64 103.5c-1.399-17.395-25.61-3.299-26-14-.633-17.394-1.164-47.462-1.164-62.38 0-1.74 2.24-4.978 5.45-4.725C69.078 24.51 100.5 28.39 129.5 30c2.153.12 5.401 2.5 5.5 5.5.347 10.546.728 21.726.939 28 .092 2.735-.902 5.98-3.38 6.596-22.033 5.47-93.262 10.746-104.136 12.3-3.5.5-5.423-2-5.423-3.606 0-24.367-.003-56.294-.743-66.212C21.423 1.395 12.423 2.395.923 4.395" stroke="#409AFF" stroke-width="5"/></svg>