<svg width="135" height="91" fill="none" xmlns="http://www.w3.org/2000/svg"><path d="M22.03 3h97.789c4.221.443 12.662 4.31 12.662 16.231v54.017c0 4.752-2.156 14.422-14.009 14.634-11.853.213-72.466.09-101.291 0-4.85 0-14.548-2.66-14.548-13.304S2.5 40.619 2.5 29c0-1.416.403-6.576 7.946-6.576 7.543 0 71.906.076 104.054.076 9 .5 9.629 15.092 1.009 16.422H20.144c-2.963 0-5.657 2.578-5.657 6.74 0 2.776.18 15.372 0 19.984.09 1.064 1.077 3.14 4.31 2.927 3.233-.213 7.902.024 10.237.113 1.616-.089 4.795-1.118 4.58-4.524-.216-3.406-.09-5.468 0-6 0-2.162-2.614-4.662-5.658-4.79-3.666-.153-7.672.04-10.456.128" stroke="#409AFF" stroke-width="5"/></svg>