<svg width="127" height="128" fill="none" xmlns="http://www.w3.org/2000/svg"><path d="M64 3l54.5 32c3.5 1.5 5.316 4.5 5.316 7.587 0 3.255-.168 31.27 0 46.413.022 2 .101 7.446-6.557 10.879C110.6 103.31 82.367 116.77 69 123.5c-2.018.757-7.58 2.324-13.028-.906C50.525 119.363 21.96 105.567 7.5 98.5c-.925-.168-4.702-3.971-4.5-7 .202-3.029.004-31.59-.5-48.5.084-.589.052-6.673 5.5-9.5s30.536-13.943 43.483-20c1.681-.589 5.234-.795 7.566 0 2.934 1 46.538 26.986 48.951 28.5 5.5 3.452 4 7.452.5 9.952C106.423 53.434 77.5 68 66 73c-9.014 3.92-11.5 3.001-15.5 1-2.825-1.413-25.845-15-36-22.048-3-2.952-2-6.388.345-7.952 1.816-1.212 26.797-11.784 37.138-17 .925-.757 3.48-1.817 6.305 0C61.82 29.271 81 40 83 42c3 3 .5 6.5-.5 7-1.5 1.5-17.613 8.45-22.712 11-1 .5-2.788.88-4.788 0-3.5-1.541-10-5.548-14-8.048s-4.305-3.109 0-5.5c4.5-2.5 9.455-4.452 14.972-6.952" stroke="#409AFF" stroke-width="5"/></svg>