<svg width="55" height="63" viewBox="0 0 55 63" fill="none" xmlns="http://www.w3.org/2000/svg">
<path d="M27.1719 0.160156C35.4419 0.160156 42.1719 5.09016 42.1719 11.1602L41.8018 17.1602H42.1719C43.8219 17.1602 45.1719 18.5102 45.1719 20.1602V23.1602C45.1719 23.9802 44.832 24.7403 44.292 25.2803C43.752 25.8203 42.9919 26.1602 42.1719 26.1602L42.1016 27.2305C42.1014 32.5303 38.8818 37.1706 34.1719 39.5205V41.3301C45.8119 43.6501 54.1719 51.8802 54.1719 61.1602C54.1719 61.7102 53.7219 62.1602 53.1719 62.1602H1.17188C0.621875 62.1602 0.171875 61.7102 0.171875 61.1602C0.171875 51.8802 8.53187 43.6501 20.1719 41.3301V39.5205C15.4619 37.1605 12.2422 32.5102 12.2422 27.1602L12.1719 26.1602C10.5219 26.1602 9.17188 24.8102 9.17188 23.1602V20.1602C9.17188 18.5102 10.5219 17.1602 12.1719 17.1602H12.542L12.1719 11.2197C12.1719 10.8799 12.2022 10.5496 12.2422 10.2197H12.2314V10.2002H12.2422C12.9422 4.5602 19.3619 0.160156 27.1719 0.160156ZM12.7715 46.0801C6.74163 49.3201 2.65191 54.5502 2.21191 60.1602H16.0918L13.3916 56.7803C13.0717 56.3903 13.1019 55.8102 13.4619 55.4502L14.6016 54.3203L12.6221 52.9902C12.3122 52.7903 12.142 52.4304 12.1719 52.0605L12.7715 46.0801ZM16.8818 54.8701L15.5117 56.2305L18.6523 60.1602H20.8418L18.752 53L16.8818 54.8701ZM24.292 60.1602H30.0518L29.2715 53.1602H25.0723L24.292 60.1602ZM33.502 60.1602H35.6914L38.832 56.2305L37.4619 54.8701L35.5918 53L33.502 60.1602ZM42.1719 52.0605C42.2017 52.4304 42.0316 52.7903 41.7217 52.9902L39.7422 54.3203L40.8818 55.4502C41.2418 55.8102 41.2721 56.3903 40.9521 56.7803L38.252 60.1602H52.1318C51.6918 54.5502 47.6021 49.3201 41.5723 46.0801L42.1719 52.0605ZM22.4521 58.5605L23.1416 52.4102L22.0117 50.7305L21.8818 50.8701C21.6818 51.0601 21.4319 51.1602 21.1719 51.1602C20.9119 51.1602 20.6619 51.0601 20.4619 50.8701L20.1016 50.5098L22.4521 58.5605ZM33.8818 50.8701C33.6818 51.0601 33.4319 51.1602 33.1719 51.1602C32.9119 51.1602 32.6619 51.0601 32.4619 50.8701L32.332 50.7305L31.2021 52.4102L31.8916 58.5605L34.2422 50.5098L33.8818 50.8701ZM16.2715 44.5098C15.8016 44.6897 15.3418 44.8703 14.8818 45.0703L14.2217 51.6602L16.042 52.8701L18.1123 50.8105L16.2715 44.5098ZM36.2314 50.8105L38.3018 52.8701L40.1221 51.6602L39.4619 45.0703C39.002 44.8703 38.5422 44.6897 38.0723 44.5098L36.2314 50.8105ZM23.4619 49.29L24.7119 51.1602H29.6318L30.8818 49.29L28.7617 47.1602H25.582L23.4619 49.29ZM20.8418 43.25C19.9318 43.42 19.0419 43.6406 18.1719 43.8906L18.9414 46.5098L21.1719 48.75L23.7617 46.1602L20.8418 43.25ZM30.582 46.1602L33.1719 48.75L35.4023 46.5098L36.1719 43.8906C35.3019 43.6406 34.4119 43.42 33.502 43.25L30.582 46.1602ZM32.1719 40.3398C30.6019 40.8598 28.9319 41.1602 27.1719 41.1602C25.4119 41.1602 23.7419 40.8598 22.1719 40.3398V41.75L25.582 45.1602H28.7617L32.1719 41.75V40.3398ZM14.2422 27.0898C14.2422 33.7798 20.0419 39.1602 27.1719 39.1602C34.3019 39.1602 40.1016 33.7802 40.1016 27.1602L40.2314 25.1602H39.7715L36.4619 31.3301C36.2519 31.7201 35.9217 32.03 35.5117 32.21L34.3516 32.7305C33.4516 33.1302 32.412 32.8297 31.8721 32.0098L30.9316 30.6104C30.7516 30.3304 30.4316 30.1602 30.1016 30.1602H24.2422C23.9122 30.1602 23.5921 30.3304 23.4121 30.6104L22.4717 32.0098C21.9318 32.8297 20.8921 33.1302 19.9922 32.7305L18.832 32.21C18.422 32.03 18.0918 31.7201 17.8818 31.3301L14.5723 25.1602H14.1123L14.2422 27.0898ZM34.7021 11.29C34.0421 10.88 32.8415 11.6299 31.5615 12.4199C30.2316 13.2399 28.7318 14.1602 27.1719 14.1602C25.6119 14.1602 24.1122 13.2399 22.7822 12.4199C21.5022 11.6299 20.2918 10.8901 19.6318 11.29C18.1718 12.2 17.2316 14.5404 16.3916 16.6104C15.8417 17.9802 15.3516 19.1598 14.7217 20.0098L14.9219 23.21C15.5218 23.31 16.042 23.67 16.332 24.21L19.6416 30.3906L20.8115 30.9004L21.7422 29.5C22.3022 28.6602 23.2423 28.1602 24.2422 28.1602H30.1016C31.1015 28.1602 32.0415 28.6602 32.6016 29.5L33.5322 30.9004L34.7021 30.3906L38.002 24.2197C38.302 23.6699 38.822 23.3099 39.4219 23.21L39.6221 20.0303C38.9821 19.1903 38.4819 17.9898 37.9219 16.5898C37.0919 14.53 36.162 12.1901 34.7021 11.29ZM12.1719 19.1602C11.6219 19.1602 11.1719 19.6102 11.1719 20.1602V23.1602C11.1719 23.7102 11.6219 24.1602 12.1719 24.1602H12.3818C12.4618 24.0302 12.5423 23.91 12.6523 23.79C12.7422 23.7002 12.8316 23.6199 12.9414 23.54L12.7021 19.7197L12.6719 19.1602H12.1719ZM41.6416 19.71V19.7305L41.4023 23.54C41.5121 23.6199 41.6016 23.7002 41.6914 23.79C41.8014 23.91 41.8819 24.0302 41.9619 24.1602H42.1719C42.7219 24.1602 43.1719 23.7102 43.1719 23.1602V20.1602C43.1719 19.6102 42.7219 19.1602 42.1719 19.1602H41.6719L41.6416 19.71ZM21.1719 19.1602C21.7239 19.1602 22.1719 19.6082 22.1719 20.1602V22.1602C22.1719 22.7122 21.7239 23.1602 21.1719 23.1602C20.6199 23.1602 20.1719 22.7122 20.1719 22.1602V20.1602C20.1719 19.6082 20.6199 19.1602 21.1719 19.1602ZM33.1719 19.1602C33.7239 19.1602 34.1719 19.6082 34.1719 20.1602V22.1602C34.1719 22.7122 33.7239 23.1602 33.1719 23.1602C32.6199 23.1602 32.1719 22.7122 32.1719 22.1602V20.1602C32.1719 19.6082 32.6199 19.1602 33.1719 19.1602ZM27.1719 2.16016C20.0019 2.16016 14.1719 6.20016 14.1719 11.1602L14.4717 16.0205C14.4917 15.9706 14.522 15.9103 14.542 15.8604C15.492 13.5104 16.5618 10.8398 18.5918 9.58984C20.2917 8.53995 22.1721 9.69975 23.832 10.7197C24.982 11.4297 26.1719 12.1602 27.1719 12.1602C28.1719 12.1602 29.3617 11.4297 30.5117 10.7197C32.1717 9.69975 34.042 8.53995 35.752 9.58984C37.772 10.8298 38.8422 13.5006 39.7822 15.8506C39.8122 15.9204 39.8424 15.9907 39.8623 16.0605L40.1719 11.1006C40.1719 6.20059 34.3419 2.16016 27.1719 2.16016Z" fill="#C02E0F"/>
</svg>
