<svg width="55" height="63" viewBox="0 0 55 63" fill="none" xmlns="http://www.w3.org/2000/svg">
<path d="M27.6519 0.160156C35.9219 0.160156 42.6519 5.09016 42.6519 11.1602L42.2114 18.1602H42.6519C44.3019 18.1602 45.6519 19.5102 45.6519 21.1602V24.1602C45.6519 25.8102 44.3019 27.1602 42.6519 27.1602H41.6519V27.2197C41.6519 32.3497 38.8319 36.8505 34.6519 39.2705V41.3301C46.2919 43.6501 54.6519 51.8802 54.6519 61.1602C54.6519 61.7102 54.2019 62.1602 53.6519 62.1602H1.65186C1.10186 62.1602 0.651855 61.7102 0.651855 61.1602C0.651855 51.8802 9.01186 43.6501 20.6519 41.3301V39.2705C16.4719 36.8405 13.6519 32.3302 13.6519 27.1602H12.6519C11.0019 27.1602 9.65186 25.8102 9.65186 24.1602V21.1602C9.65186 19.5102 11.0019 18.1602 12.6519 18.1602H13.0923L12.6519 11.2197C12.6522 5.08993 19.382 0.160156 27.6519 0.160156ZM13.2515 46.0801C7.22161 49.3201 3.13189 54.5502 2.69189 60.1602H16.5718L13.8716 56.7803C13.5516 56.3903 13.5819 55.8102 13.9419 55.4502L15.0815 54.3203L13.1021 52.9902C12.7922 52.7903 12.622 52.4304 12.6519 52.0605L13.2515 46.0801ZM17.3618 54.8701L15.9917 56.2305L19.1323 60.1602H21.3218L19.2319 53L17.3618 54.8701ZM24.772 60.1602H30.5317L29.7622 53.1602H25.5415L24.772 60.1602ZM33.9819 60.1602H36.1714L39.312 56.2305L37.9419 54.8701L36.0718 53L33.9819 60.1602ZM42.6519 52.0605C42.6817 52.4304 42.5116 52.7903 42.2017 52.9902L40.2222 54.3203L41.3618 55.4502C41.7218 55.8102 41.7521 56.3903 41.4321 56.7803L38.7319 60.1602H52.6118C52.1718 54.5502 48.0821 49.3201 42.0522 46.0801L42.6519 52.0605ZM22.9321 58.5605L23.6216 52.4102L22.4917 50.7305L22.3618 50.8701C22.1618 51.0601 21.9119 51.1602 21.6519 51.1602C21.3919 51.1602 21.1419 51.0601 20.9419 50.8701L20.5815 50.5098L22.9321 58.5605ZM34.3618 50.8701C34.1618 51.0601 33.9119 51.1602 33.6519 51.1602C33.3919 51.1602 33.1419 51.0601 32.9419 50.8701L32.812 50.7305L31.6821 52.4102L32.3716 58.5605L34.7222 50.5098L34.3618 50.8701ZM16.7515 44.5098C16.2815 44.6897 15.8217 44.8703 15.3618 45.0703L14.7017 51.6602L16.522 52.8701L18.5923 50.8105L16.7515 44.5098ZM36.7114 50.8105L38.7817 52.8701L40.6021 51.6602L39.9419 45.0703C39.482 44.8703 39.0222 44.6897 38.5522 44.5098L36.7114 50.8105ZM23.9419 49.29L25.1919 51.1602H30.1118L31.3618 49.29L29.2417 47.1602H26.062L23.9419 49.29ZM21.3218 43.25C20.4118 43.42 19.5218 43.6406 18.6519 43.8906L19.4214 46.5098L21.6519 48.75L24.2417 46.1602L21.3218 43.25ZM31.062 46.1602L33.6519 48.75L35.8823 46.5098L36.6519 43.8906C35.7819 43.6406 34.8919 43.42 33.9819 43.25L31.062 46.1602ZM32.6519 40.2197C31.0919 40.8197 29.4119 41.1602 27.6519 41.1602C25.8919 41.1602 24.2119 40.8197 22.6519 40.2197V41.75L26.062 45.1602H29.2417L32.6519 41.75V40.2197ZM35.1821 11.29C34.5321 10.89 33.3215 11.6299 32.0415 12.4199C30.7115 13.2399 29.2118 14.1602 27.6519 14.1602C26.0919 14.1602 24.5922 13.2399 23.2622 12.4199C21.9822 11.6299 20.7718 10.8901 20.1118 11.29C18.6518 12.2 17.7116 14.5404 16.8716 16.6104C16.3216 17.9702 15.8316 19.1501 15.2017 20L15.6519 27.1006C15.6521 33.7804 21.032 39.1602 27.6519 39.1602C34.2719 39.1602 39.6519 33.7802 39.6519 27.1602L40.0923 20.0303C39.4523 19.1903 38.9619 17.9898 38.4019 16.5898C37.5819 14.53 36.642 12.1901 35.1821 11.29ZM31.3022 32.0264C31.7072 31.7405 32.2572 31.7914 32.5981 32.1514C33.0129 32.5894 32.9563 33.3054 32.4634 33.6543C31.0845 34.6311 29.4137 35.1602 27.6519 35.1602C25.89 35.1602 24.2193 34.6311 22.8403 33.6543C22.3474 33.3054 22.2898 32.5894 22.7056 32.1514C23.0465 31.7914 23.5965 31.7405 24.0015 32.0264C25.0435 32.7624 26.3109 33.1602 27.6519 33.1602C28.9929 33.1602 30.2612 32.7624 31.3022 32.0264ZM24.6519 20.1602C25.3889 20.1602 26.0265 20.5652 26.3735 21.1602H28.9302C29.2772 20.5652 29.9149 20.1602 30.6519 20.1602H35.6519C36.7549 20.1602 37.6519 21.0572 37.6519 22.1602V25.1602C37.6517 26.263 36.7548 27.1602 35.6519 27.1602H30.6519C29.549 27.1602 28.652 26.263 28.6519 25.1602V23.1602H26.6519V25.1602C26.6517 26.263 25.7548 27.1602 24.6519 27.1602H19.6519C18.549 27.1602 17.652 26.263 17.6519 25.1602V22.1602C17.6519 21.0572 18.5489 20.1602 19.6519 20.1602H24.6519ZM12.6519 20.1602C12.1019 20.1602 11.6519 20.6102 11.6519 21.1602V24.1602C11.6519 24.7102 12.1019 25.1602 12.6519 25.1602H13.522L13.2114 20.1602H12.6519ZM19.6519 25.1602H24.6519V22.1602H19.6519V25.1602ZM30.6519 25.1602H35.6519V22.1602H30.6519V25.1602ZM41.7817 25.1602H42.6519C43.2019 25.1602 43.6519 24.7102 43.6519 24.1602V21.1602C43.6519 20.6102 43.2019 20.1602 42.6519 20.1602H42.0923L41.7817 25.1602ZM27.6519 2.16016C20.4819 2.16016 14.6519 6.20016 14.6519 11.1602L14.9517 16.0205C14.9816 15.9606 15.002 15.9103 15.022 15.8604C15.972 13.5104 17.042 10.8398 19.062 9.58984C20.7719 8.54013 22.6521 9.69979 24.312 10.7197C25.462 11.4297 26.6519 12.1602 27.6519 12.1602C28.6519 12.1602 29.8417 11.4297 30.9917 10.7197C32.6517 9.68976 34.532 8.53995 36.2319 9.58984C38.2519 10.8298 39.3222 13.5006 40.2622 15.8506C40.2921 15.9203 40.3124 15.98 40.3423 16.0498L40.6519 11.1006C40.6519 6.20059 34.8219 2.16016 27.6519 2.16016Z" fill="#E06A28"/>
</svg>
