<svg width="62" height="62" viewBox="0 0 62 62" fill="none" xmlns="http://www.w3.org/2000/svg">
<path d="M21.737 4.18897C26.9275 -0.729657 35.0719 -0.729657 40.2624 4.18897L40.4763 4.39698L40.528 4.43702L40.5964 4.51612L40.8132 4.73878C43.7033 7.77684 44.9888 11.9786 44.3317 16.0796L44.2683 16.4419L44.2351 16.605L44.4353 16.5601C45.2552 16.4054 46.1011 16.5561 46.8151 16.978L47.0065 17.0991L47.1765 17.2241C47.8943 17.7828 48.3586 18.601 48.4733 19.5093L48.4929 19.7202L48.4997 19.9292L48.4987 24.3364L48.6481 24.4273C51.6483 26.2905 54.0954 28.9177 55.7429 32.0386L55.9528 32.4487L56.154 32.8638L56.2233 33.0171L58.4362 33.2915C59.9797 33.4918 61.1894 34.6775 61.4489 36.189L61.4763 36.3794L61.4938 36.5728L61.4997 36.7691V41.231C61.4957 42.8497 60.3882 44.2447 58.8259 44.6333L58.6364 44.6753L58.4401 44.7066L56.2321 44.98L56.1862 45.0864C54.524 48.8415 51.3575 52.1162 47.0944 54.5103L46.6501 54.7554L46.2116 54.9858L45.9577 55.1138L44.8513 58.9634C44.4789 60.2632 43.3972 61.2189 42.0798 61.4478L41.8796 61.4761L41.6862 61.4937L41.4899 61.4995H36.5104C35.0886 61.4994 33.8173 60.6394 33.2751 59.3286L33.2058 59.147L33.1462 58.9585L32.9987 58.4439L32.6042 58.4663C32.07 58.4904 31.5351 58.5025 30.9997 58.5024L30.195 58.4937L29.3903 58.4663L28.9997 58.4439L28.8532 58.9595C28.4818 60.2615 27.399 61.219 26.0798 61.4478L25.8806 61.4771L25.6862 61.4937L25.4899 61.4995H20.5104C19.087 61.4984 17.8148 60.6365 17.2741 59.3237L17.2048 59.1411L17.1462 58.9556L16.0427 55.105L15.8581 55.0132C8.9903 51.5129 4.80642 45.8712 4.51631 39.688L4.50361 39.3442L4.49971 38.9985C4.50067 38.0332 4.59677 37.0703 4.78584 36.1245L4.821 35.9595L4.77803 35.9243C2.71042 34.1754 1.27472 31.7991 0.689159 29.1773L0.614941 28.8189L0.550487 28.4566C0.354288 27.4884 0.757447 26.4965 1.57295 25.939C2.3341 25.4188 3.31705 25.3706 4.11299 25.7964L4.27998 25.895C5.76837 26.8086 7.41292 27.4372 9.12861 27.7495L9.31221 27.7798L9.50264 27.5884C12.1534 24.9792 15.3239 22.964 18.8024 21.6704L19.3269 21.4819L19.6901 21.3599L19.5114 21.0786C16.3677 16.0056 16.9443 9.431 20.9616 4.98096L21.1931 4.73194L21.4167 4.49952L21.4538 4.45362L21.5144 4.40284L21.737 4.18897ZM44.9714 19.5093C44.3709 19.6749 43.7792 19.8916 43.2077 20.1548L42.9196 20.2944L42.7839 20.5493C42.2627 21.485 41.6341 22.3548 40.9187 23.1323L40.6306 23.4331L40.5866 23.4937L40.5456 23.5425L40.4938 23.5884L40.4333 23.6304L40.1179 23.9341C39.9957 24.0473 39.871 24.1576 39.7448 24.2661L39.4011 24.5503L39.4733 24.5737C40.2138 24.8193 40.635 25.5863 40.4646 26.3316L40.4255 26.4712C40.1645 27.2577 39.3151 27.6841 38.5544 27.4312C36.3018 26.8175 33.979 26.502 31.6384 26.4937L30.9997 26.4995C29.0055 26.4995 27.3798 26.6621 26.0964 26.9321L25.9138 26.9722L25.5759 27.0532L25.28 27.1323L25.0349 27.2056L24.8444 27.2691L24.7175 27.3189C24.702 27.3257 24.6891 27.3321 24.6794 27.3374C23.9381 27.7077 23.037 27.4069 22.6667 26.6655C22.3619 26.0551 22.5117 25.3364 22.988 24.895L23.0183 24.8687L22.9606 24.8276C22.5953 24.5545 22.2436 24.2628 21.9079 23.9536L21.7888 23.8394L21.5886 23.896C17.6952 25.0191 14.1603 27.134 11.3386 30.0259L11.0026 30.3774C10.6656 30.7576 10.1598 30.9424 9.66768 30.8706C7.68559 30.6248 5.76357 30.0415 3.98506 29.1489L3.73701 29.0181L3.79853 29.2163C4.46156 31.2425 5.49327 32.8447 7.05049 33.8853L7.30146 34.0444C7.87715 34.3956 8.14781 35.0883 7.9626 35.7378C7.65779 36.7986 7.50174 37.8967 7.49971 38.9995C7.49974 44.4786 11.386 49.6027 17.9401 52.6929C18.2258 52.8274 18.46 53.0484 18.6188 53.3394L18.6921 53.4907L18.7429 53.6353L20.0329 58.1362C20.0802 58.3021 20.2085 58.4294 20.3503 58.4761L20.4216 58.4927L20.5104 58.4995H25.4909C25.6613 58.5 25.8173 58.4123 25.9001 58.2905L25.9353 58.2271L25.9655 58.1441L26.4479 56.4497C26.6447 55.7572 27.3055 55.3024 28.0231 55.3657C30.0038 55.5431 31.997 55.5431 33.9782 55.3657C34.5845 55.3123 35.1565 55.6299 35.444 56.1792L35.5046 56.3101L35.5524 56.4497L36.0319 58.1372C36.0795 58.3028 36.2086 58.4306 36.3503 58.4771L36.4216 58.4927L36.5104 58.4995H41.4919C41.6618 58.5002 41.818 58.4136 41.9011 58.2925L41.9362 58.229L41.9665 58.1489L43.2585 53.6489C43.3773 53.2348 43.668 52.8912 44.0573 52.7066C48.8907 50.4174 52.332 46.9973 53.7604 43.0874C53.9141 42.666 54.2463 42.3382 54.6843 42.1841L54.8347 42.1392L54.987 42.1118L58.0593 41.7339C58.2616 41.706 58.4248 41.5608 58.4782 41.3901L58.4938 41.3159L58.4997 41.229V36.7691C58.4991 36.5637 58.3759 36.3821 58.2126 36.3062L58.1403 36.2798L58.0603 36.2642L54.987 35.8853C54.474 35.8224 54.0329 35.5007 53.819 35.0523L53.7663 34.9273C52.3068 31.3277 49.6507 28.3416 46.2292 26.4634C45.8793 26.2537 45.6323 25.9119 45.5378 25.4976L45.5095 25.3394L45.4997 25.1763V19.9263C45.4997 19.7939 45.4385 19.6689 45.3308 19.5855C45.2699 19.5376 45.1977 19.5083 45.1228 19.4995L45.0466 19.4976L44.9714 19.5093ZM44.4997 30.4995C46.7088 30.4995 48.4997 32.2904 48.4997 34.4995C48.4997 36.7086 46.7088 38.4995 44.4997 38.4995C42.2906 38.4995 40.4997 36.7086 40.4997 34.4995C40.4997 32.2904 42.2906 30.4996 44.4997 30.4995ZM44.4997 32.4995C43.3952 32.4996 42.4997 33.395 42.4997 34.4995C42.4997 35.604 43.3952 36.4995 44.4997 36.4995C45.6043 36.4995 46.4997 35.6041 46.4997 34.4995C46.4997 33.3949 45.6043 32.4995 44.4997 32.4995ZM32.4997 4.99952C32.4997 5.82791 31.8281 6.49952 30.9997 6.49952C30.2841 6.49946 29.6781 5.99553 29.531 5.28858L29.5075 5.14503L29.4997 4.99952L29.4987 3.61378L29.3024 3.6421C27.7069 3.90213 26.1923 4.52881 24.8835 5.4712L24.7165 5.59522L25.7019 6.58155C26.2344 7.13335 26.2603 7.99024 25.7849 8.57178L25.6833 8.68409C25.1888 9.1785 24.4261 9.26047 23.8239 8.89014L23.6979 8.80323L23.5739 8.69581L22.5944 7.71632L22.4763 7.87647C21.5314 9.18833 20.9029 10.7026 20.6433 12.2944L20.614 12.4985L21.9997 12.4995C22.7794 12.4995 23.4202 13.0943 23.4929 13.855L23.4997 13.9995C23.4997 14.715 22.9964 15.321 22.2897 15.4683L22.1452 15.4917L21.9997 15.4995L20.614 15.4985L20.6433 15.6948C20.9063 17.2897 21.5333 18.8035 22.4733 20.1138L22.5954 20.2788L23.5817 19.2935C24.1335 18.7608 24.9904 18.735 25.572 19.2105L25.6843 19.312C26.1788 19.8065 26.2608 20.5692 25.8903 21.1714L25.8034 21.2974L25.697 21.4204L24.7175 22.3999L24.9606 22.5786C25.5376 22.9864 26.1549 23.3346 26.8034 23.6167L27.0856 23.7329L27.7077 23.6597C27.9605 23.6334 28.2143 23.611 28.4685 23.5913L29.2331 23.5415L29.4987 23.5317L29.4997 22.9995C29.4997 22.2199 30.0946 21.5791 30.8552 21.5064L30.9997 21.4995C31.7154 21.4995 32.3223 22.0035 32.4694 22.7105L32.4919 22.854L32.4997 22.9995L32.4987 23.5308L32.6481 23.5357C33.2783 23.5631 33.8939 23.6059 34.5026 23.6636L34.9802 23.7124L35.2526 23.5972C35.8851 23.3158 36.4876 22.9726 37.0476 22.5747L37.281 22.4019L36.2976 21.4175C35.7646 20.8657 35.738 20.0089 36.2136 19.4273L36.3151 19.3149C36.8096 18.8205 37.5724 18.7386 38.1745 19.1089L38.3015 19.1958L38.4245 19.3032L39.3991 20.2778L39.5173 20.1196C40.4601 18.8066 41.0899 17.2935 41.3542 15.7026L41.3835 15.4985L39.9997 15.4995C39.2201 15.4995 38.5793 14.9046 38.5065 14.144L38.4997 13.9995C38.4997 13.2838 39.0037 12.6769 39.7106 12.5298L39.8542 12.5073L39.9997 12.4995L41.3845 12.4985L41.3571 12.3023C41.0971 10.7066 40.4704 9.19215 39.528 7.88331L39.403 7.71632L38.4304 8.68995C38.088 9.04435 37.5955 9.2061 37.1149 9.1294L36.9714 9.09913C36.4471 8.96181 36.0374 8.55212 35.9001 8.02784C35.7922 7.61565 35.8661 7.18048 36.1091 6.81299L36.2077 6.67823L36.3034 6.57471L37.2819 5.59424L37.1218 5.4751C35.8089 4.52979 34.2937 3.90219 32.697 3.6421L32.4987 3.61378L32.4997 4.99952ZM30.9997 7.49952C31.7154 7.49952 32.3223 8.00347 32.4694 8.71046L32.4919 8.85401L32.4997 8.99952V14.0005C32.4986 14.3873 32.3479 14.7565 32.0671 15.0464L31.9558 15.1509L31.8317 15.2446L28.8327 17.2446C28.1435 17.7044 27.2114 17.5178 26.7517 16.8286C26.3565 16.2359 26.4368 15.4567 26.9372 14.9419L27.0505 14.8355L27.1677 14.7485L29.4987 13.1968L29.4997 8.99952C29.4997 8.26866 30.0226 7.66012 30.7146 7.52686L30.8552 7.50635L30.9997 7.49952Z" fill="url(#paint0_linear_106_1227)"/>
<defs>
<linearGradient id="paint0_linear_106_1227" x1="0.501465" y1="0.5" x2="0.501465" y2="61.4995" gradientUnits="userSpaceOnUse">
<stop stop-color="#FFB1B1"/>
<stop offset="1" stop-color="#FF7979"/>
</linearGradient>
</defs>
</svg>
