<svg width="57" height="56" viewBox="0 0 57 56" fill="none" xmlns="http://www.w3.org/2000/svg">
<path d="M40.5498 48.9212C41.0634 48.9212 41.5772 49.0497 41.834 49.4348C42.2192 49.82 42.4755 50.2055 42.4756 50.719V53.9299C42.4754 54.4432 42.2189 54.8281 41.834 55.2132C41.5772 55.5984 41.0634 55.7268 40.5498 55.7268H16.4502C15.9366 55.7268 15.4228 55.5984 15.166 55.2132C14.7811 54.8281 14.5246 54.4432 14.5244 53.9299V50.719C14.5245 50.2055 14.7808 49.82 15.166 49.4348C15.4228 49.0497 15.9366 48.9212 16.4502 48.9212H40.5498ZM17.0928 53.1594H39.9072V51.4895H17.0928V53.1594ZM8.98828 9.4944C8.73159 9.8796 8.60344 10.3934 8.34668 10.7786H6.29199C5.26475 10.7786 4.36566 11.1634 3.72363 11.9339C2.95322 12.5759 2.56837 13.475 2.56836 14.5022V41.0882C2.56836 42.1153 2.95333 43.0145 3.72363 43.6565C4.36566 44.2985 5.26475 44.8127 6.29199 44.8128H50.708C51.7352 44.8127 52.6343 44.2985 53.2764 43.6565C54.0467 43.0145 54.4316 42.1153 54.4316 41.0882V14.5022C54.4316 13.475 54.0468 12.5759 53.2764 11.9339C52.6343 11.1634 51.7352 10.7786 50.708 10.7786H29.2773C28.8921 9.87971 28.3784 8.98068 27.7363 8.21022H50.708C52.3773 8.21025 54.0465 8.98081 55.2021 10.0081V10.136C56.3578 11.1633 57 12.8329 57 14.5022V41.0882C57 42.7575 56.2294 44.2987 55.2021 45.4544C54.0465 46.61 52.3773 47.3801 50.708 47.3801H6.29199C4.6227 47.3801 2.95352 46.61 1.79785 45.4544C0.770571 44.2987 0 42.7575 0 41.0882V14.5022C1.39382e-05 12.8329 0.77058 11.1633 1.79785 10.136L1.92578 10.0081C2.95304 8.98081 4.62269 8.21025 6.29199 8.21022H7.70508L8.98828 9.4944ZM19.5752 30.01C19.9604 30.01 20.4742 30.2669 20.8594 30.5237C21.1162 30.9089 21.373 31.2943 21.373 31.8079V39.8723C21.373 40.3859 21.1162 40.7713 20.8594 41.1565C20.4741 41.5417 19.9604 41.6702 19.5752 41.6702H16.3652C15.8516 41.6702 15.3379 41.5417 15.0811 41.1565C14.6959 40.7714 14.4395 40.3859 14.4395 39.8723V31.8079C14.4395 31.2943 14.6959 30.9089 15.0811 30.5237C15.3379 30.2669 15.8516 30.01 16.3652 30.01H19.5752ZM30.1055 26.1956C30.6189 26.1956 31.0045 26.3241 31.3896 26.7092C31.7747 26.9661 31.9033 27.4799 31.9033 27.9934V39.8723C31.9033 40.3858 31.7746 40.7714 31.3896 41.1565C31.0045 41.5417 30.6189 41.6701 30.1055 41.6702H26.8945C26.3811 41.6701 25.9955 41.5417 25.6104 41.1565C25.2254 40.7714 25.0967 40.3858 25.0967 39.8723V27.9934C25.0967 27.4799 25.2253 26.9661 25.6104 26.7092C25.9955 26.3241 26.3811 26.1956 26.8945 26.1956H30.1055ZM40.6348 14.7893C41.1484 14.7893 41.6621 14.9178 41.9189 15.303C42.3041 15.5599 42.5605 16.0736 42.5605 16.5872V39.8723C42.5605 40.3859 42.3041 40.7714 41.9189 41.1565C41.6621 41.5417 41.1484 41.6702 40.6348 41.6702H37.5527C37.0392 41.6702 36.5258 41.5417 36.1406 41.1565C35.8838 40.7713 35.627 40.3859 35.627 39.8723V16.5872C35.627 16.0735 35.8838 15.5598 36.1406 15.303C36.5258 14.9178 37.0392 14.7894 37.5527 14.7893H40.6348ZM17.0068 39.1018H18.8047V32.5784H17.0068V39.1018ZM27.665 39.1018H29.335V28.7639H27.665V39.1018ZM38.1953 39.1018H39.9932V17.3577H38.1953V39.1018ZM3.98926 0.385026C4.50287 -0.128254 5.27358 -0.12843 5.78711 0.385026L12.9697 7.56764C14.6389 6.15545 16.8217 5.51399 18.876 5.51393C21.3156 5.51393 23.8839 6.41228 25.6816 8.33815C27.6078 10.2643 28.6357 12.7045 28.6357 15.2727C28.6357 17.7125 27.6078 20.2806 25.6816 22.0784V22.2073C23.7556 24.0048 21.3156 25.0315 18.876 25.0315C16.3079 25.0314 13.8684 24.0044 11.9424 22.0784C10.0162 20.2806 9.11719 17.7125 9.11719 15.2727C9.11719 13.2182 9.75887 11.0348 11.043 9.36549L3.98926 2.18288C3.47569 1.66924 3.47564 0.898642 3.98926 0.385026ZM18.876 8.08132C17.0785 8.08139 15.4094 8.72374 13.9971 9.87917C13.9971 9.94337 13.9647 10.0083 13.9326 10.0725C13.9006 10.1366 13.8682 10.2008 13.8682 10.2649C13.804 10.2649 13.7399 10.2973 13.6758 10.3294C13.6117 10.3614 13.5475 10.3927 13.4834 10.3928C12.3277 11.8053 11.6855 13.475 11.6855 15.2727C11.6855 17.0705 12.3277 18.868 13.7402 20.2805C15.1527 21.6929 16.95 22.464 18.876 22.4641C20.6735 22.4641 22.4713 21.6933 23.8838 20.4094V20.2805C25.2963 18.868 26.0674 17.0705 26.0674 15.2727C26.0674 13.475 25.2963 11.5485 23.8838 10.136C22.4713 8.72377 20.6735 8.08132 18.876 8.08132Z" fill="url(#paint0_linear_106_1234)"/>
<defs>
<linearGradient id="paint0_linear_106_1234" x1="0" y1="0" x2="0" y2="55.727" gradientUnits="userSpaceOnUse">
<stop stop-color="#FFB1B1"/>
<stop offset="1" stop-color="#FF7979"/>
</linearGradient>
</defs>
</svg>
