<svg width="55" height="63" fill="none" xmlns="http://www.w3.org/2000/svg"><path d="M27.172.16c8.27 0 15 4.93 15 11l-.37 6h.37c1.65 0 3 1.35 3 3v3c0 .82-.34 1.58-.88 2.12s-1.3.88-2.12.88l-.07 1.07c0 5.3-3.22 9.94-7.93 12.29v1.81c11.64 2.32 20 10.55 20 19.83 0 .55-.45 1-1 1h-52c-.55 0-1-.45-1-1 0-9.28 8.36-17.51 20-19.83v-1.81c-4.71-2.36-7.93-7.01-7.93-12.36l-.07-1c-1.65 0-3-1.35-3-3v-3c0-1.65 1.35-3 3-3h.37l-.37-5.94c0-.34.03-.67.07-1h-.01v-.02h.01c.7-5.64 7.12-10.04 14.93-10.04zm-14.4 45.92c-6.03 3.24-10.12 8.47-10.56 14.08h13.88l-2.7-3.38a.997.997 0 01.07-1.33l1.14-1.13-1.98-1.33c-.31-.2-.48-.56-.45-.93l.6-5.98zm4.11 8.79l-1.37 1.36 3.14 3.93h2.19L18.752 53l-1.87 1.87zm7.41 5.29h5.76l-.78-7h-4.2l-.78 7zm9.21 0h2.19l3.14-3.93-1.37-1.36-1.87-1.87-2.09 7.16zm8.67-8.1c.03.37-.14.73-.45.93l-1.98 1.33 1.14 1.13c.36.36.39.94.07 1.33l-2.7 3.38h13.88c-.44-5.61-4.53-10.84-10.56-14.08l.6 5.98zm-19.72 6.5l.69-6.15-1.13-1.68-.13.14c-.2.19-.45.29-.71.29-.26 0-.51-.1-.71-.29l-.36-.36 2.35 8.05zm11.43-7.69c-.2.19-.45.29-.71.29-.26 0-.51-.1-.71-.29l-.13-.14-1.13 1.68.69 6.15 2.35-8.05-.36.36zm-17.61-6.36c-.47.18-.93.36-1.39.56l-.66 6.59 1.82 1.21 2.07-2.06-1.84-6.3zm19.96 6.3l2.07 2.06 1.82-1.21-.66-6.59c-.46-.2-.92-.38-1.39-.56l-1.84 6.3zm-12.77-1.52l1.25 1.87h4.92l1.25-1.87-2.12-2.13h-3.18l-2.12 2.13zm-2.62-6.04c-.91.17-1.8.39-2.67.64l.77 2.62 2.23 2.24 2.59-2.59-2.92-2.91zm9.74 2.91l2.59 2.59 2.23-2.24.77-2.62c-.87-.25-1.76-.47-2.67-.64l-2.92 2.91zm1.59-5.82c-1.57.52-3.24.82-5 .82-1.76 0-3.43-.3-5-.82v1.41l3.41 3.41h3.18l3.41-3.41v-1.41zm-17.93-13.25c0 6.69 5.8 12.07 12.93 12.07s12.93-5.38 12.93-12l.13-2h-.46l-3.31 6.17c-.21.39-.54.7-.95.88l-1.16.52c-.9.4-1.94.1-2.48-.72l-.94-1.4a.995.995 0 00-.83-.45h-5.86c-.33 0-.65.17-.83.45l-.94 1.4c-.54.82-1.58 1.12-2.48.72l-1.16-.52c-.41-.18-.74-.49-.95-.88l-3.31-6.17h-.46l.13 1.93zm20.46-15.8c-.66-.41-1.86.34-3.14 1.13-1.33.82-2.83 1.74-4.39 1.74-1.56 0-3.06-.92-4.39-1.74-1.28-.79-2.49-1.53-3.15-1.13-1.46.91-2.4 3.25-3.24 5.32-.55 1.37-1.04 2.55-1.67 3.4l.2 3.2c.6.1 1.12.46 1.41 1l3.31 6.18 1.17.51.93-1.4c.56-.84 1.5-1.34 2.5-1.34h5.86c1 0 1.94.5 2.5 1.34l.93 1.4 1.17-.51 3.3-6.17c.3-.55.82-.91 1.42-1.01l.2-3.18c-.64-.84-1.14-2.04-1.7-3.44-.83-2.06-1.76-4.4-3.22-5.3zm-22.53 7.87c-.55 0-1 .45-1 1v3c0 .55.45 1 1 1h.21c.08-.13.16-.25.27-.37.09-.09.18-.17.29-.25l-.24-3.82-.03-.56h-.5zm29.47.55v.02l-.24 3.81c.11.08.2.16.29.25.11.12.19.24.27.37h.21c.55 0 1-.45 1-1v-3c0-.55-.45-1-1-1h-.5l-.03.55zm-20.47-.55a1 1 0 011 1v2a1 1 0 01-2 0v-2a1 1 0 011-1zm12 0a1 1 0 011 1v2a1 1 0 01-2 0v-2a1 1 0 011-1zm-6-17c-7.17 0-13 4.04-13 9l.3 4.86c.02-.05.05-.11.07-.16.95-2.35 2.02-5.02 4.05-6.27 1.7-1.05 3.58.11 5.24 1.13 1.15.71 2.34 1.44 3.34 1.44s2.19-.73 3.34-1.44c1.66-1.02 3.53-2.18 5.24-1.13 2.02 1.24 3.09 3.91 4.03 6.26.03.07.06.14.08.21l.31-4.96c0-4.9-5.83-8.94-13-8.94z" fill="#C02E0F"/></svg>