<svg width="55" height="63" fill="none" xmlns="http://www.w3.org/2000/svg"><path d="M27.425.16c2.71 0 5.36.53 7.67 1.53 4.59 2.01 7.33 5.54 7.33 9.46v.07l-.44 6.94h.44c1.65 0 3 1.35 3 3v3c0 1.65-1.35 3-3 3h-1v.06c0 5.13-2.82 9.63-7 12.05v2.06c11.64 2.32 20 10.55 20 19.83 0 .55-.45 1-1 1h-52c-.55 0-1-.45-1-1 0-9.28 8.36-17.51 20-19.83v-2.06c-4.18-2.43-7-6.94-7-12.11h-1c-1.65 0-3-1.35-3-3v-3c0-1.65 1.35-3 3-3h.44l-.44-6.94c0-.39.03-.77.07-1.15a5.003 5.003 0 01-4.07-4.91v-4c0-.55.45-1 1-1h18zm-14.4 45.92c-6.03 3.24-10.12 8.47-10.56 14.08h13.88l-2.7-3.38a.997.997 0 01.07-1.33l1.14-1.13-1.98-1.33c-.31-.2-.48-.56-.45-.93l.6-5.98zm4.11 8.79l-1.37 1.36 3.14 3.93h2.19L19.005 53l-1.87 1.87zm7.41 5.29h5.76l-.77-7h-4.22l-.77 7zm9.21 0h2.19l3.14-3.93-1.37-1.36-1.87-1.87-2.09 7.16zm8.67-8.1c.03.37-.14.73-.45.93l-1.98 1.33 1.14 1.13c.36.36.39.94.07 1.33l-2.7 3.38h13.88c-.44-5.61-4.53-10.84-10.56-14.08l.6 5.98zm-19.72 6.5l.69-6.15-1.13-1.68-.13.14c-.2.19-.45.29-.71.29-.26 0-.51-.1-.71-.29l-.36-.36 2.35 8.05zm11.43-7.69c-.2.19-.45.29-.71.29-.26 0-.51-.1-.71-.29l-.13-.14-1.13 1.68.69 6.15 2.35-8.05-.36.36zm-17.61-6.36c-.47.18-.93.36-1.39.56l-.66 6.59 1.82 1.21 2.07-2.06-1.84-6.3zm19.96 6.3l2.07 2.06 1.82-1.21-.66-6.59c-.46-.2-.92-.38-1.39-.56l-1.84 6.3zm-12.77-1.52l1.25 1.87h4.92l1.25-1.87-2.12-2.13h-3.18l-2.12 2.13zm-2.62-6.04c-.91.17-1.8.39-2.67.64l.77 2.62 2.23 2.24 2.59-2.59-2.92-2.91zm9.74 2.91l2.59 2.59 2.23-2.24.77-2.62c-.87-.25-1.76-.47-2.67-.64l-2.92 2.91zm1.59-5.94c-1.56.6-3.24.94-5 .94-1.76 0-3.44-.34-5-.94v1.53l3.41 3.41h3.18l3.41-3.41v-1.53zm2.37-24.64c-4.75.77-9.99.77-14.74 0-1.11 3.35-2.83 5.91-4.89 7.34l.26 4.18c0 6.68 5.38 12.06 12 12.06s12-5.38 12-12l.26-4.24c-2.06-1.43-3.78-3.99-4.89-7.34zm-3.72 14.446a.992.992 0 011.296.125c.415.438.358 1.154-.135 1.503-1.379.977-3.05 1.506-4.811 1.506-1.762 0-3.433-.529-4.812-1.506-.493-.349-.55-1.065-.134-1.503a.992.992 0 011.295-.125 6.301 6.301 0 003.65 1.134c1.342 0 2.61-.398 3.651-1.134zm-18.65-9.866c-.55 0-1 .45-1 1v3c0 .55.45 1 1 1h.87l-.31-5h-.56zm29.13 5h.87c.55 0 1-.45 1-1v-3c0-.55-.45-1-1-1h-.56l-.31 5zm-19.13-6a1 1 0 011 1v2a1 1 0 01-2 0v-2a1 1 0 011-1zm10 0a1 1 0 011 1v2a1 1 0 01-2 0v-2a1 1 0 011-1zm-22-14c0 1.65 1.35 3 3 3h.28a1 1 0 01.96 1.27c-.16.56-.24 1.13-.24 1.7l.58 9.33c1.42-1.42 2.62-3.61 3.4-6.3.14-.49.64-.8 1.14-.7 5.03.93 10.73.93 15.76 0 .5-.1 1 .21 1.14.7.78 2.69 1.98 4.88 3.4 6.3l.58-9.36c0-3.04-2.29-5.9-6.13-7.57-2.06-.9-4.44-1.37-6.87-1.37h-17v3z" fill="#E02828"/></svg>