<svg width="59" height="57" fill="none" xmlns="http://www.w3.org/2000/svg"><path d="M28.26 0c15.7 0 28.38 12.801 28.38 28.38 0 5.072-1.328 9.903-3.865 14.25l3.745-.845c.603-.12 1.207.242 1.569.846.241.604-.241 1.328-.845 1.45l-6.642 1.57h-.604c-.483 0-.846-.363-.967-.846l-1.57-6.643c-.24-.604.242-1.328.846-1.45.603-.24 1.328.243 1.449.847l.967 3.985c2.415-3.985 3.623-8.454 3.623-13.164 0-14.371-11.716-25.965-25.966-25.965-14.371 0-25.965 11.715-25.965 25.965S14.009 54.346 28.38 54.346c.724 0 1.208.482 1.208 1.207 0 .724-.483 1.208-1.208 1.208C12.68 56.76 0 43.959 0 28.38S12.68 0 28.26 0zm.12 11.231c9.299 0 16.908 7.609 16.908 16.908 0 9.299-7.609 16.907-16.908 16.907-9.299 0-16.907-7.608-16.907-16.907 0-9.3 7.608-16.907 16.907-16.908zm1.208 4.59c0 .724-.483 1.207-1.208 1.207-.724 0-1.207-.483-1.207-1.208v-2.052c-7.004.603-12.68 6.158-13.164 13.163h2.053c.725 0 1.207.483 1.207 1.208 0 .724-.482 1.207-1.206 1.208h-2.054A14.46 14.46 0 0027.173 42.51v-2.053c0-.724.483-1.208 1.207-1.208.725 0 1.208.483 1.208 1.208v2.053a14.46 14.46 0 0013.164-13.163h-2.054c-.724 0-1.207-.484-1.207-1.208 0-.725.483-1.208 1.207-1.208h2.054a14.46 14.46 0 00-13.164-13.163v2.052zm-1.208 5.555c.604 0 1.208.604 1.208 1.328v5.556c0 .241-.12.483-.241.724l-4.228 5.073c-.362.482-1.207.482-1.69.12-.483-.363-.483-1.208-.121-1.69l3.865-4.832v-5.072c0-.724.483-1.207 1.207-1.207z" fill="url(#paint0_linear_106_1184)"/><defs><linearGradient id="paint0_linear_106_1184" x1="0" y1="0" x2="0" y2="56.761" gradientUnits="userSpaceOnUse"><stop stop-color="#FFB1B1"/><stop offset="1" stop-color="#FF7979"/></linearGradient></defs></svg>