<svg width="58" height="58" fill="none" xmlns="http://www.w3.org/2000/svg"><path d="M4.869.451a1.479 1.479 0 112.09 2.091L5.048 4.454h38.166a14.76 14.76 0 018.872 26.576v24.704a1.48 1.48 0 01-1.479 1.478H5.914a1.479 1.479 0 01-1.479-1.478V32.548a1.478 1.478 0 112.957 0v21.706H49.13v-21.49a14.696 14.696 0 01-5.915 1.263h-26.95a1.479 1.479 0 010-2.957h26.95a11.722 11.722 0 005.915-1.624v-9.687l-5.147-6.433h-10.95l.444 4.436h11.242a1.479 1.479 0 110 2.957H33.617v5.914c0 .817-.662 1.479-1.479 1.479h-7.755a1.478 1.478 0 01-1.479-1.479V20.72H7.392v5.914a1.478 1.478 0 11-2.957 0v-7.392c0-.022.011-.04.012-.061.004-.175.039-.347.103-.51.005-.01.013-.018.018-.03.05-.115.114-.224.191-.323l5.915-7.394c.28-.35.705-.554 1.154-.555h32.864c.45 0 .874.205 1.155.556l5.915 7.393a1.4 1.4 0 01.087.17c.056.084.103.175.139.27l.098.483v7.81a11.819 11.819 0 00-8.872-19.639H5.048l1.91 1.913a1.478 1.478 0 11-2.09 2.09L.434 6.98a1.485 1.485 0 010-2.094L4.87.451zm5.48 46.41a1.48 1.48 0 011.479 1.48v2.956a1.478 1.478 0 11-2.957 0V48.34c0-.816.662-1.478 1.478-1.478zm4.437 0a1.48 1.48 0 011.478 1.48v2.956a1.479 1.479 0 01-2.958 0V48.34a1.48 1.48 0 011.48-1.478zM25.86 25.156h4.799V20.72H25.86v4.436zM8.99 17.763h14.053l.444-4.436h-10.95L8.99 17.763zm17.025 0h4.489l-.445-4.436h-3.6l-.444 4.436z" fill="url(#paint0_linear_106_1251)"/><defs><linearGradient id="paint0_linear_106_1251" x1=".001" y1="0" x2=".001" y2="57.212" gradientUnits="userSpaceOnUse"><stop stop-color="#FFB1B1"/><stop offset="1" stop-color="#FF7979"/></linearGradient></defs></svg>