<svg width="58" height="54" fill="none" xmlns="http://www.w3.org/2000/svg"><path d="M39.198 1.35a3.963 3.963 0 013.96 3.958v10.837H54.04A3.956 3.956 0 0158 20.102V35.2a3.933 3.933 0 01-1.16 2.799 3.952 3.952 0 01-1.318.873A3.954 3.954 0 0158 42.541v4.483a3.939 3.939 0 01-2.188 3.541l-.511.255v1.92A1.26 1.26 0 0154.04 54H43.247a1.26 1.26 0 01-1.26-1.26v-2.177l-4.238-4.237a3.937 3.937 0 01-1.16-2.8v-1.582c0-1.014.287-1.963.783-2.77l-18.66.01v.101a3.956 3.956 0 01-3.96 3.96H8.008a3.96 3.96 0 01-3.96-3.96v-2.698a3.96 3.96 0 013.96-3.96h5.486v-9.911l-9.522.027H3.96A3.964 3.964 0 010 18.784V5.308A3.963 3.963 0 013.958 1.35h35.24zm8.187 31.15c-.073-1.913-2.81-1.9-2.878 0v9.445c-.062 1.668-2.457 1.67-2.52 0v-2.788h-.092a2.79 2.79 0 00-2.786 2.787v1.582c0 .384.15.746.422 1.019l4.607 4.606c.236.237.369.557.369.891v1.438h8.274v-1.438c0-.477.27-.913.697-1.127l1.207-.603c.49-.246.795-.74.795-1.288v-4.483c0-.62-.395-1.169-.984-1.365l-6.25-2.083a1.26 1.26 0 01-.861-1.196V32.5zM8.007 35.148a1.44 1.44 0 00-1.44 1.439v2.698c0 .776.627 1.44 1.44 1.44h6.746c.8 0 1.44-.649 1.44-1.44v-.293c-2.23-.745-2.7-2.84-2.7-3.755v-.09H8.007zm9.445-16.484a1.44 1.44 0 00-1.44 1.438V35.23a1.442 1.442 0 001.444 1.439l24.268-.026c.057-.002.115-.005.173-.005h.09V32.5c.187-5.231 7.719-5.259 7.917 0v4.138h4.137c.794 0 1.44-.642 1.44-1.439V20.103c0-.798-.647-1.439-1.44-1.439H17.452zM3.958 3.87A1.44 1.44 0 002.52 5.308v13.476c0 .806.656 1.44 1.443 1.44l9.53-.028v-.094a3.958 3.958 0 013.96-3.957h23.185V5.308a1.44 1.44 0 00-1.44-1.439H3.958zM54.042 0A3.956 3.956 0 0158 3.958v5.35a3.957 3.957 0 01-3.958 3.959h-4.048a3.958 3.958 0 01-3.959-3.96V3.959A3.958 3.958 0 0149.995 0h4.047zm-4.048 2.52a1.44 1.44 0 00-1.44 1.438v5.35c0 .786.637 1.44 1.44 1.44h4.048a1.44 1.44 0 001.438-1.44v-5.35c0-.797-.645-1.438-1.438-1.438h-4.048z" fill="url(#paint0_linear_106_1190)"/><defs><linearGradient id="paint0_linear_106_1190" x1="0" y1="0" x2="0" y2="54" gradientUnits="userSpaceOnUse"><stop stop-color="#FFB1B1"/><stop offset="1" stop-color="#FF7979"/></linearGradient></defs></svg>