<svg width="73" height="54" fill="none" xmlns="http://www.w3.org/2000/svg"><path d="M22.106 5.86a7.346 7.346 0 0112.35 5.288v2.676h4.223c1.498 0 2.37 1.564 2.512 2.674l4.18 27.908a2.634 2.634 0 01-.704 2.157l-5.828 6.119a1.29 1.29 0 01-.889.396 2.59 2.59 0 01-1.152.281H2.601a2.602 2.602 0 01-2.59-2.845L3.68 16.308a2.902 2.902 0 012.781-2.484h6.175v-1.11a7.262 7.262 0 017.339-7.165c.722 0 1.44.105 2.132.31zM63.922 0a2.596 2.596 0 012.594 2.594V20.75h3.89A2.596 2.596 0 0173 23.344v27.422a2.596 2.596 0 01-2.594 2.593H42.797a2.567 2.567 0 01-.87-.16l2.32-2.433h26.161l-.002-27.422h-6.82v10.811a2.484 2.484 0 01-1.48 2.285 2.515 2.515 0 01-2.723-.402l-2.639-2.313-2.638 2.313a2.516 2.516 0 01-2.723.402 2.485 2.485 0 01-1.48-2.285V23.344h-5.228l-.33-2.594h1.046V2.594A2.596 2.596 0 0147.985 0h15.937zM6.46 16.418a.51.51 0 00-.21.186l-3.656 34.15 34.207.012-3.664-34.217a.793.793 0 00-.023-.131h-5.8v3.835a3.494 3.494 0 11-2.594 0v-3.835h-9.491v3.835a3.495 3.495 0 11-2.594 0v-3.835H6.46zm32.742 32.121l3.587-3.765-4.17-27.95a1.093 1.093 0 00-.164-.406H35.73l3.472 32.121zm26.815-5.049a1.297 1.297 0 010 2.594h-4.653a1.297 1.297 0 110-2.594h4.653zm0-4.99a1.297 1.297 0 010 2.594h-4.653a1.297 1.297 0 010-2.594h4.653zm-13.52-4.462l2.575-2.296a2.547 2.547 0 013.346 0L60.991 34V23.363h-8.494v10.675zM13.932 22.594a.91.91 0 10.02 1.821.91.91 0 00-.02-1.821zm12.085 0a.91.91 0 10.02 1.822.91.91 0 00-.02-1.822zm21.968-1.844h15.937V2.594h-2.79v8.061a2.06 2.06 0 01-1.196 1.86 2.227 2.227 0 01-2.35-.266l-1.633-1.314-1.633 1.314a2.233 2.233 0 01-2.35.267 2.058 2.058 0 01-1.194-1.86V2.593h-2.791V20.75zM19.974 8.143a4.666 4.666 0 00-4.745 4.57v1.111h4.547v-2.676c0-1.03.224-2.049.656-2.984a4.957 4.957 0 00-.458-.021zm2.887.95a4.563 4.563 0 00-.492 2.055v2.676h2.35v-1.11a4.507 4.507 0 00-1.858-3.62zm4.254-2.609c-.875 0-1.735.24-2.483.697a7.092 7.092 0 012.682 5.533v1.11h4.547v-2.676a4.71 4.71 0 00-4.746-4.664zM53.37 9.687l1.199-.965a2.224 2.224 0 012.771-.001l1.198.966V2.756H53.37v6.93z" fill="url(#paint0_linear_106_1200)"/><defs><linearGradient id="paint0_linear_106_1200" x1="0" y1="0" x2="0" y2="53.359" gradientUnits="userSpaceOnUse"><stop stop-color="#FFB1B1"/><stop offset="1" stop-color="#FF7979"/></linearGradient></defs></svg>