<svg width="61" height="54" fill="none" xmlns="http://www.w3.org/2000/svg"><path d="M25.242 0c.38 0 .723.16.963.415L31.51 5.34h13.08c.731 0 1.322.59 1.322 1.321v5.655h6.174c1.28 0 2.243.547 2.978 1.388.625.725 1.05 1.655 1.355 2.615l3.807 11.934c.072.15.106.348.106.52v18.431a6.02 6.02 0 01-1.769 4.253 6.004 6.004 0 01-4.255 1.773H6.327a6.013 6.013 0 01-4.256-1.767 6.01 6.01 0 01-1.77-4.256v-18.43c0-.184.038-.36.105-.52l3.808-11.936c.294-.924.701-1.822 1.287-2.529l.067-.085c.457-.524 1.002-.934 1.655-1.169l.002-.488c0-.73.592-1.322 1.322-1.322h1.625V6.76c0-.73.592-1.322 1.322-1.322h3.226V1.32c0-.73.59-1.32 1.321-1.321h9.201zM2.943 47.202c0 .93.383 1.776.994 2.39a3.373 3.373 0 002.387.993h47.98a3.379 3.379 0 003.38-3.38V30.097l-54.74-.002v17.106zm37.239-14.26c.73 0 1.32.591 1.32 1.322v2.71a7.06 7.06 0 01-2.08 4.999 7.063 7.063 0 01-5.003 2.086H26.21a7.067 7.067 0 01-5.004-2.08l-.072-.079a7.057 7.057 0 01-2.011-4.926v-2.71c0-.73.591-1.322 1.321-1.322h19.738zm-18.41 4.03c0 1.194.474 2.28 1.246 3.08l.056.055a4.434 4.434 0 003.136 1.306h8.209a4.438 4.438 0 003.139-1.304 4.442 4.442 0 001.302-3.137v-1.387H21.772v1.387zM7.224 15.924a6.27 6.27 0 00-.5 1.192l-3.3 10.34h3.8V15.923zm2.64 11.53h40.899V21.25H30.602a1.347 1.347 0 01-.898-.357l-8.102-7.52H9.865v14.08zm40.594-8.846h1.626c.73 0 1.321.591 1.321 1.322v7.523h3.8l-3.299-10.339c-.206-.65-.474-1.259-.836-1.675-.255-.289-.576-.477-.986-.477l-1.626-.001v3.647zm-37.65-7.881h9.31c.38 0 .723.16.963.415l8.034 7.46h16.697v-3.646h-17.06a1.347 1.347 0 01-.898-.356l-7.025-6.522H12.81v2.649zm4.554-5.291h5.985c.379 0 .723.16.963.415l6.96 6.462h12V7.98H30.995a1.346 1.346 0 01-.898-.356l-5.369-4.983h-7.365v2.795z" fill="url(#paint0_linear_106_1217)"/><defs><linearGradient id="paint0_linear_106_1217" x1=".301" y1="0" x2=".301" y2="53.231" gradientUnits="userSpaceOnUse"><stop stop-color="#FFB1B1"/><stop offset="1" stop-color="#FF7979"/></linearGradient></defs></svg>