<svg width="57" height="56" fill="none" xmlns="http://www.w3.org/2000/svg"><path d="M40.55 48.921c.513 0 1.027.129 1.284.514.385.385.641.77.642 1.284v3.21c0 .514-.257.9-.642 1.284-.257.385-.77.514-1.284.514h-24.1c-.513 0-1.027-.129-1.284-.514-.385-.385-.641-.77-.642-1.283v-3.211c0-.514.257-.899.642-1.284.257-.385.77-.514 1.284-.514h24.1zM17.093 53.16h22.814v-1.67H17.093v1.67zM8.988 9.494c-.256.386-.385.9-.641 1.285H6.292c-1.027 0-1.926.384-2.568 1.155-.77.642-1.156 1.541-1.156 2.568v26.586c0 1.027.385 1.926 1.156 2.569.642.642 1.54 1.156 2.568 1.156h44.416c1.027 0 1.926-.515 2.568-1.157.77-.642 1.156-1.54 1.156-2.568V14.502c0-1.027-.385-1.926-1.156-2.568-.642-.77-1.54-1.155-2.568-1.155h-21.43c-.386-.9-.9-1.798-1.542-2.569h22.972c1.67 0 3.339.77 4.494 1.798v.128C56.358 11.163 57 12.833 57 14.502v26.586c0 1.67-.77 3.21-1.798 4.366-1.155 1.156-2.825 1.926-4.494 1.926H6.292c-1.67 0-3.338-.77-4.494-1.926C.77 44.3 0 42.757 0 41.088V14.502c0-1.67.77-3.339 1.798-4.366l.128-.128C2.953 8.981 4.623 8.21 6.292 8.21h1.413l1.283 1.284zM19.575 30.01c.385 0 .9.257 1.284.514.257.385.514.77.514 1.284v8.064c0 .514-.257.9-.514 1.285-.385.385-.899.513-1.284.513h-3.21c-.513 0-1.027-.128-1.284-.514-.385-.385-.641-.77-.641-1.284v-8.064c0-.514.256-.9.641-1.284.257-.257.77-.514 1.284-.514h3.21zm10.53-3.814c.514 0 .9.128 1.285.513.385.257.513.77.513 1.284v11.88c0 .513-.128.898-.513 1.284-.386.385-.771.513-1.285.513h-3.21c-.514 0-.9-.128-1.285-.514-.385-.385-.513-.77-.513-1.284V27.993c0-.513.128-1.027.513-1.284.386-.385.771-.513 1.285-.513h3.21zm10.53-11.407c.513 0 1.027.129 1.284.514.385.257.642.77.642 1.284v23.285c0 .514-.257.9-.642 1.285-.257.385-.77.513-1.284.513h-3.082c-.514 0-1.027-.128-1.412-.514-.257-.385-.514-.77-.514-1.284V16.587c0-.514.257-1.027.514-1.284.385-.385.898-.514 1.412-.514h3.082zM17.007 39.102h1.798v-6.524h-1.798v6.524zm10.658 0h1.67V28.764h-1.67v10.338zm10.53 0h1.798V17.358h-1.798v21.744zM3.99.385a1.242 1.242 0 011.798 0l7.183 7.183c1.669-1.413 3.852-2.054 5.906-2.054 2.44 0 5.008.898 6.806 2.824 1.926 1.926 2.954 4.367 2.954 6.935 0 2.44-1.028 5.008-2.954 6.805v.13c-1.926 1.797-4.366 2.824-6.806 2.824-2.568 0-5.008-1.028-6.934-2.954-1.926-1.797-2.825-4.366-2.825-6.805 0-2.055.642-4.238 1.926-5.908L3.989 2.183a1.242 1.242 0 010-1.798zm14.887 7.696c-1.798 0-3.467.643-4.879 1.798a.46.46 0 01-.064.194c-.032.064-.065.128-.065.192-.064 0-.128.032-.192.064a.457.457 0 01-.193.064c-1.155 1.412-1.798 3.082-1.798 4.88 0 1.797.643 3.595 2.055 5.008 1.413 1.412 3.21 2.183 5.136 2.183 1.797 0 3.595-.77 5.008-2.055v-.128c1.412-1.413 2.183-3.21 2.183-5.008s-.77-3.724-2.183-5.137c-1.413-1.412-3.21-2.055-5.008-2.055z" fill="url(#paint0_linear_106_1234)"/><defs><linearGradient id="paint0_linear_106_1234" x1="0" y1="0" x2="0" y2="55.727" gradientUnits="userSpaceOnUse"><stop stop-color="#FFB1B1"/><stop offset="1" stop-color="#FF7979"/></linearGradient></defs></svg>