<svg width="62" height="62" fill="none" xmlns="http://www.w3.org/2000/svg"><path d="M21.737 4.189c5.19-4.919 13.335-4.919 18.525 0l.214.208.052.04.068.08.217.222a13.387 13.387 0 013.519 11.34l-.064.363-.033.163.2-.045a3.43 3.43 0 012.38.418l.192.121.17.125a3.432 3.432 0 011.296 2.285l.02.211.007.21-.001 4.406.15.091c3 1.864 5.446 4.49 7.094 7.612l.21.41.201.415.07.153 2.212.274a3.518 3.518 0 013.013 2.898l.027.19.018.194.006.196v4.462a3.516 3.516 0 01-2.674 3.402l-.19.042-.196.032-2.208.273-.046.106c-1.662 3.756-4.828 7.03-9.092 9.424l-.444.245-.438.23-.254.129-1.107 3.85a3.501 3.501 0 01-2.771 2.484l-.2.028-.194.018-.196.005h-4.98a3.502 3.502 0 01-3.235-2.17l-.07-.182-.059-.188-.147-.515-.395.022c-.534.024-1.069.036-1.604.036l-.805-.008-.805-.028-.39-.022-.147.515a3.5 3.5 0 01-2.773 2.489l-.2.03-.194.016-.196.005h-4.98a3.503 3.503 0 01-3.236-2.175l-.07-.183-.058-.185-1.103-3.851-.185-.092c-6.868-3.5-11.052-9.142-11.342-15.325l-.012-.344-.004-.346c0-.965.097-1.928.286-2.873l.035-.166-.043-.035a12.386 12.386 0 01-4.089-6.747l-.074-.358-.065-.362a2.459 2.459 0 013.563-2.66l.167.098a14.095 14.095 0 004.849 1.855l.183.03.19-.192a26.35 26.35 0 019.3-5.918l.525-.188.363-.122-.179-.281a13.462 13.462 0 011.45-16.098l.232-.25.224-.231.037-.046.06-.051.223-.214zm23.234 15.32c-.6.166-1.192.383-1.763.646l-.288.14-.136.254a13.578 13.578 0 01-1.865 2.583l-.288.301-.044.06-.041.05-.052.045-.06.042-.316.304a13 13 0 01-.373.332l-.344.284.072.024a1.502 1.502 0 01.992 1.758l-.04.14c-.26.786-1.11 1.212-1.87.96a26.657 26.657 0 00-6.917-.938L31 26.5c-1.994 0-3.62.162-4.904.432l-.182.04-.338.081-.296.08-.245.073-.19.063-.127.05a1.5 1.5 0 01-1.73-2.424l.03-.026-.057-.041a13.376 13.376 0 01-1.053-.874l-.12-.115-.2.057a23.378 23.378 0 00-10.25 6.13l-.335.351c-.337.38-.843.565-1.335.494a17.46 17.46 0 01-5.683-1.722l-.248-.13.062.197c.663 2.026 1.694 3.629 3.251 4.67l.251.158c.576.352.847 1.044.662 1.694a11.892 11.892 0 00-.463 3.261c0 5.48 3.886 10.604 10.44 13.694.286.134.52.355.679.646l.073.152.05.144 1.29 4.501a.507.507 0 00.318.34l.072.017.088.006h4.98a.5.5 0 00.41-.209l.035-.063.03-.083.483-1.694a1.5 1.5 0 011.575-1.084c1.98.177 3.974.177 5.955 0a1.502 1.502 0 011.466.813l.06.131.048.14.48 1.687a.51.51 0 00.318.34l.072.016.088.006h4.982a.5.5 0 00.41-.207l.034-.063.03-.08 1.292-4.5a1.5 1.5 0 01.8-.942c4.833-2.29 8.274-5.71 9.702-9.62a1.5 1.5 0 01.924-.903l.15-.045.153-.027 3.072-.378a.516.516 0 00.42-.344l.015-.074.006-.087v-4.46a.517.517 0 00-.287-.463l-.073-.026-.08-.016-3.073-.379a1.498 1.498 0 01-1.168-.833l-.053-.125a16.893 16.893 0 00-7.537-8.464 1.5 1.5 0 01-.691-.965l-.028-.159-.01-.163v-5.25a.43.43 0 00-.377-.426l-.076-.002-.076.011zM44.5 30.5a4 4 0 110 8 4 4 0 010-8zm0 2a2 2 0 100 4 2 2 0 000-4zM32.5 5A1.5 1.5 0 0131 6.5a1.502 1.502 0 01-1.469-1.21l-.023-.144L29.5 5l-.001-1.386-.197.028a10.44 10.44 0 00-4.418 1.83l-.168.123.986.987a1.5 1.5 0 01.083 1.99l-.102.112a1.502 1.502 0 01-1.86.206l-.125-.087-.124-.107-.98-.98-.118.16a10.44 10.44 0 00-1.833 4.418l-.029.204L22 12.5a1.5 1.5 0 011.493 1.355l.007.144c0 .716-.504 1.322-1.21 1.47l-.145.023-.145.007h-1.386l.03.196c.262 1.595.89 3.108 1.83 4.419l.121.165.987-.985a1.5 1.5 0 011.99-.084l.112.102c.495.494.577 1.257.206 1.86l-.087.125-.106.123-.98.98.244.179c.577.407 1.194.756 1.842 1.038l.283.116.622-.073c.253-.027.506-.049.76-.069l.765-.05.266-.01V23a1.5 1.5 0 011.356-1.494L31 21.5c.715 0 1.322.503 1.47 1.21l.022.144.008.146-.001.53.15.006c.63.027 1.245.07 1.854.128l.477.048.273-.115a10.4 10.4 0 001.795-1.022l.233-.173-.983-.985a1.5 1.5 0 01-.084-1.99l.101-.112a1.502 1.502 0 011.86-.206l.127.087.123.107.974.975.118-.158a10.541 10.541 0 001.837-4.417l.03-.204H40a1.5 1.5 0 01-1.493-1.355l-.007-.145c0-.715.504-1.322 1.21-1.47l.144-.022L40 12.5h1.385l-.028-.197a10.439 10.439 0 00-1.829-4.419l-.125-.167-.973.974a1.501 1.501 0 01-1.315.44l-.144-.03a1.5 1.5 0 01-1.07-1.072 1.5 1.5 0 01.208-1.215l.099-.135.095-.103.979-.98-.16-.12a10.449 10.449 0 00-4.425-1.833l-.198-.028V5zM31 7.5c.715 0 1.322.504 1.47 1.211l.022.144L32.5 9v5a1.5 1.5 0 01-.433 1.046l-.111.105-.124.094-3 2a1.5 1.5 0 01-2.08-.416 1.501 1.501 0 01.185-1.887l.113-.107.118-.087 2.33-1.551L29.5 9a1.5 1.5 0 011.215-1.473l.14-.02L31 7.5z" fill="url(#paint0_linear_106_1227)"/><defs><linearGradient id="paint0_linear_106_1227" x1=".501" y1=".5" x2=".501" y2="61.499" gradientUnits="userSpaceOnUse"><stop stop-color="#FFB1B1"/><stop offset="1" stop-color="#FF7979"/></linearGradient></defs></svg>